<?xml version="1.0" standalone="no"?>
<!DOCTYPE svg PUBLIC "-//W3C//DTD SVG 20010904//EN"
 "http://www.w3.org/TR/2001/REC-SVG-20010904/DTD/svg10.dtd">
<svg version="1.0" xmlns="http://www.w3.org/2000/svg"
 width="200.000000pt" height="200.000000pt" viewBox="0 0 200.000000 200.000000"
 preserveAspectRatio="xMidYMid meet">
<metadata>
Created by potrace 1.10, written by Peter Selinger 2001-2011
</metadata>
<g transform="translate(0.000000,200.000000) scale(0.100000,-0.100000)"
fill="#000000" stroke="none">
<path d="M448 1711 c-124 -40 -188 -94 -195 -168 -3 -26 -13 -57 -23 -68 -66
-74 -169 -380 -204 -605 -20 -123 -20 -377 -1 -446 27 -96 96 -164 166 -164
27 0 53 21 198 163 131 129 175 165 207 175 58 17 750 17 808 0 32 -10 76 -46
207 -175 145 -142 171 -163 198 -163 70 0 138 67 166 164 23 79 15 390 -14
524 -45 212 -137 469 -190 527 -10 11 -21 42 -24 68 -5 55 -29 85 -95 124 -65
38 -156 63 -231 63 -57 0 -74 -4 -114 -30 l-48 -30 -259 0 -259 0 -48 30 c-41
26 -56 30 -117 29 -40 0 -96 -8 -128 -18z m202 -56 l30 -15 -22 -34 -22 -33
-35 25 c-50 34 -126 27 -221 -21 -70 -35 -87 -34 -50 3 71 71 248 112 320 75z
m933 -22 c63 -30 107 -64 107 -82 0 -5 -31 7 -70 26 -95 48 -171 55 -221 21
l-35 -25 -22 33 -22 33 28 16 c44 25 155 15 235 -22z m-288 -65 l28 -42 -74
-68 -74 -67 -175 0 -175 0 -74 68 -74 68 28 41 28 42 267 0 267 0 28 -42z
m-632 -111 c61 -57 122 -109 134 -115 30 -16 376 -16 406 0 12 6 73 58 135
116 110 101 115 104 152 99 53 -7 145 -50 197 -93 55 -45 93 -119 148 -289
100 -302 130 -604 75 -748 -21 -54 -65 -107 -89 -107 -8 0 -83 67 -166 149
-113 113 -164 156 -205 175 l-55 26 -395 0 -395 0 -55 -26 c-41 -19 -92 -62
-205 -175 -83 -82 -158 -149 -166 -149 -19 0 -61 45 -83 87 -64 127 -34 463
70 778 78 234 132 301 293 360 73 27 83 23 204 -88z"/>
<path d="M935 1565 c-19 -18 -25 -35 -25 -65 0 -56 34 -90 90 -90 56 0 90 34
90 90 0 56 -34 90 -90 90 -30 0 -47 -6 -65 -25z m107 -22 c38 -34 11 -103 -40
-103 -54 0 -81 62 -45 102 20 22 61 23 85 1z"/>
<path d="M1492 1493 c-15 -6 -42 -56 -42 -78 0 -23 54 -75 78 -75 34 0 82 48
82 81 0 55 -64 94 -118 72z m70 -40 c24 -21 23 -48 -3 -66 -44 -32 -94 14 -64
59 18 28 41 31 67 7z"/>
<path d="M380 1439 c-32 -13 -78 -56 -96 -91 -20 -38 -18 -126 4 -167 45 -90
155 -126 247 -81 136 66 139 262 4 330 -41 22 -117 26 -159 9z m150 -41 c55
-38 75 -73 75 -133 0 -153 -195 -212 -281 -86 -33 48 -33 124 -1 171 46 69
143 91 207 48z"/>
<path d="M404 1380 c-11 -4 -33 -23 -48 -41 -24 -29 -28 -39 -24 -81 11 -109
133 -155 209 -79 93 94 -13 251 -137 201z m96 -35 c35 -18 55 -71 41 -107 -12
-31 -57 -68 -83 -68 -28 0 -76 27 -88 49 -19 37 -12 81 19 112 33 33 67 37
111 14z"/>
<path d="M1331 1314 c-12 -15 -21 -38 -21 -51 0 -34 42 -73 80 -73 38 0 80 39
80 73 0 42 -36 77 -80 77 -30 0 -43 -6 -59 -26z m99 -24 c27 -50 -32 -92 -73
-52 -18 18 -19 25 -9 47 15 32 66 35 82 5z"/>
<path d="M1615 1320 c-27 -30 -25 -88 4 -111 35 -28 85 -25 110 7 43 54 10
124 -58 124 -26 0 -44 -7 -56 -20z m96 -31 c17 -33 -4 -71 -37 -67 -15 2 -33
12 -40 23 -12 18 -11 24 2 43 20 28 60 29 75 1z"/>
<path d="M817 1292 c-22 -24 -21 -65 1 -85 40 -36 102 -9 102 45 0 51 -69 78
-103 40z m68 -42 c0 -18 -6 -26 -23 -28 -24 -4 -38 18 -28 44 3 9 15 14 28 12
17 -2 23 -10 23 -28z"/>
<path d="M1097 1292 c-22 -24 -21 -65 1 -85 40 -36 102 -9 102 45 0 51 -69 78
-103 40z m68 -42 c0 -18 -6 -26 -23 -28 -24 -4 -38 18 -28 44 3 9 15 14 28 12
17 -2 23 -10 23 -28z"/>
<path d="M1479 1161 c-32 -32 -35 -47 -18 -84 22 -49 86 -61 124 -22 40 39 32
96 -16 120 -40 21 -57 19 -90 -14z m79 -17 c12 -8 22 -22 22 -31 0 -21 -29
-53 -47 -53 -15 0 -53 35 -53 50 0 12 37 50 48 50 4 0 18 -7 30 -16z"/>
<path d="M686 1094 c-10 -10 -16 -33 -16 -65 l0 -49 -51 1 c-58 2 -69 -7 -69
-61 0 -48 15 -60 72 -60 l48 0 0 -49 c0 -40 4 -53 22 -65 55 -39 108 -4 108
69 l0 45 48 0 c58 0 72 12 72 61 0 47 -20 63 -76 60 l-44 -2 0 49 c0 35 -5 54
-18 65 -23 21 -76 22 -96 1z m81 -69 c1 -27 2 -56 2 -62 1 -9 20 -13 61 -13
60 0 60 0 60 -30 0 -29 -1 -29 -62 -32 l-61 -3 -1 -55 c-1 -55 -1 -55 -33 -58
l-33 -3 0 60 0 61 -60 0 c-60 0 -60 0 -60 30 0 30 0 30 60 30 l60 0 0 58 c0
67 4 74 40 70 23 -3 25 -7 27 -53z"/>
<path d="M1182 1089 c-161 -82 -123 -318 57 -353 72 -13 168 40 197 111 67
159 -102 320 -254 242z m167 -36 c68 -51 89 -131 53 -203 -54 -108 -216 -108
-273 0 -44 81 -6 183 81 219 36 15 108 7 139 -16z"/>
<path d="M1210 1032 c-114 -60 -73 -232 55 -232 131 0 171 185 50 236 -45 18
-63 18 -105 -4z m123 -53 c37 -40 36 -82 -2 -120 -21 -21 -39 -29 -65 -29 -75
0 -121 86 -76 143 43 55 96 57 143 6z"/>
</g>
</svg>
